<?xml version="1.0" standalone="no"?>
<!DOCTYPE svg PUBLIC "-//W3C//DTD SVG 20010904//EN"
 "http://www.w3.org/TR/2001/REC-SVG-20010904/DTD/svg10.dtd">
<svg version="1.0" xmlns="http://www.w3.org/2000/svg"
 width="200.000000pt" height="200.000000pt" viewBox="0 0 200.000000 200.000000"
 preserveAspectRatio="xMidYMid meet">

<g transform="translate(0.000000,200.000000) scale(0.100000,-0.100000)"
fill="#000000" stroke="none">
<path d="M860 1870 c-249 -17 -432 -65 -644 -172 -122 -61 -216 -118 -216
-130 0 -16 993 -1569 1002 -1566 9 4 990 1538 995 1558 4 15 -150 113 -272
173 -80 40 -219 85 -325 107 -88 18 -344 42 -410 38 -14 0 -72 -4 -130 -8z
m298 -20 c234 -16 392 -55 567 -142 98 -48 255 -141 252 -149 -10 -25 -971
-1519 -977 -1519 -11 0 -970 1504 -970 1521 0 15 160 108 265 155 197 87 389
127 695 142 14 1 89 -3 168 -8z"/>
</g>
</svg>
