<?xml version="1.0" standalone="no"?>
<!DOCTYPE svg PUBLIC "-//W3C//DTD SVG 20010904//EN"
 "http://www.w3.org/TR/2001/REC-SVG-20010904/DTD/svg10.dtd">
<svg version="1.0" xmlns="http://www.w3.org/2000/svg"
 width="3180.000000pt" height="783.000000pt" viewBox="0 0 3180.000000 783.000000"
 preserveAspectRatio="xMidYMid meet">

<g transform="translate(0.000000,783.000000) scale(0.100000,-0.100000)"
fill="#000000" stroke="none">
<path d="M7615 7054 c-16 -2 -61 -11 -100 -19 -38 -8 -110 -19 -160 -24 -49
-5 -119 -16 -155 -26 -36 -9 -101 -25 -145 -37 -129 -32 -215 -60 -295 -94
-41 -18 -97 -40 -125 -49 -101 -35 -256 -121 -470 -263 l-220 -146 -232 -233
c-128 -128 -233 -237 -233 -242 0 -5 96 86 213 203 213 212 214 214 433 358
214 142 368 228 469 263 28 9 84 31 125 49 80 34 166 62 295 94 44 12 109 28
145 37 36 10 106 21 155 26 50 5 124 17 165 27 107 25 617 25 700 0 30 -9 93
-19 140 -22 47 -3 119 -15 160 -25 41 -11 113 -30 160 -41 128 -32 217 -60
300 -96 41 -18 98 -40 125 -49 71 -25 258 -120 335 -171 101 -68 151 -101 205
-139 28 -19 64 -43 80 -52 29 -17 400 -18 7820 -23 l7790 -5 95 -36 c113 -42
123 -48 220 -112 103 -69 221 -185 289 -287 73 -107 84 -130 124 -243 l32 -92
0 -1535 0 -1535 -36 -103 c-20 -56 -35 -102 -33 -102 8 0 48 88 77 173 l32 92
0 1535 0 1535 -32 92 c-40 113 -51 136 -124 243 -68 102 -186 218 -289 287
-97 64 -107 70 -220 112 l-95 36 -7790 5 c-7420 5 -7791 6 -7820 23 -16 9 -52
33 -80 52 -54 38 -104 71 -205 139 -77 51 -264 146 -335 171 -27 9 -84 31
-125 49 -83 36 -172 64 -300 96 -47 11 -119 30 -160 40 -41 11 -122 24 -180
29 -58 5 -118 15 -135 22 -29 12 -517 23 -590 13z"/>
<path d="M5378 5785 c-25 -34 -22 -43 3 -11 12 15 20 29 18 31 -2 1 -12 -7
-21 -20z"/>
<path d="M22850 3740 l0 -1470 360 0 360 0 0 30 0 30 -340 0 -340 0 0 1440 c0
1433 0 1440 -20 1440 -20 0 -20 -7 -20 -1470z"/>
<path d="M24090 3735 l0 -1475 355 0 355 0 0 30 0 30 -335 0 -335 0 0 1445 c0
1438 0 1445 -20 1445 -20 0 -20 -7 -20 -1475z"/>
<path d="M5935 4938 c-76 -158 -155 -378 -155 -433 0 -17 -9 -63 -20 -103 -17
-62 -20 -102 -20 -292 0 -190 3 -230 20 -292 11 -40 20 -86 20 -103 0 -53 78
-273 150 -421 98 -204 165 -298 345 -481 213 -218 304 -293 450 -370 l70 -36
250 -8 c626 -19 704 -13 790 63 60 53 83 93 29 50 -83 -65 -173 -71 -779 -53
l-250 8 -70 36 c-146 77 -237 152 -450 370 -180 183 -247 277 -345 481 -72
148 -150 368 -150 421 0 17 -9 63 -20 103 -17 62 -20 102 -20 292 0 190 3 230
20 292 11 40 20 86 20 103 0 50 77 269 140 403 33 67 57 122 54 122 -3 0 -38
-69 -79 -152z"/>
<path d="M12227 5013 c-4 -3 -7 -428 -7 -944 l0 -939 23 -5 c12 -3 438 -4 947
-3 l925 3 3 28 3 27 -915 0 c-503 0 -921 3 -930 6 -14 6 -16 96 -16 920 0 755
-2 914 -13 914 -8 0 -17 -3 -20 -7z"/>
<path d="M14867 5013 c-4 -3 -7 -428 -7 -944 l0 -939 23 -5 c12 -3 438 -4 947
-3 l925 3 3 28 3 27 -915 0 c-503 0 -921 3 -930 6 -14 6 -16 96 -16 920 0 755
-2 914 -13 914 -8 0 -17 -3 -20 -7z"/>
<path d="M17467 5013 c-4 -3 -7 -428 -7 -944 l0 -939 23 -5 c12 -3 438 -4 947
-3 l925 3 3 28 3 27 -915 0 c-503 0 -921 3 -930 6 -14 6 -16 96 -16 920 0 755
-2 914 -13 914 -8 0 -17 -3 -20 -7z"/>
<path d="M20107 5013 c-4 -3 -7 -428 -7 -944 l0 -939 23 -5 c12 -3 438 -4 947
-3 l925 3 3 28 c3 23 0 27 -23 27 -15 0 -24 -4 -20 -10 4 -6 -12 -10 -39 -10
-25 0 -46 5 -46 10 0 6 -40 10 -100 10 -60 0 -100 -4 -100 -10 0 -5 -16 -10
-35 -10 -19 0 -35 5 -35 10 0 7 -245 10 -714 10 -393 0 -721 3 -730 6 -14 6
-16 96 -16 920 0 755 -2 914 -13 914 -8 0 -17 -3 -20 -7z"/>
<path d="M10440 4130 l0 -460 485 0 485 0 0 30 0 30 -465 0 -465 0 0 430 c0
423 0 430 -20 430 -20 0 -20 -7 -20 -460z"/>
<path d="M9779 4288 c-127 -152 -270 -284 -369 -341 -110 -63 -289 -96 -662
-122 -54 -4 -98 -11 -98 -15 0 -5 -26 -16 -57 -25 -124 -36 -254 -125 -335
-228 -30 -38 -26 -36 35 19 74 68 171 123 260 149 31 9 57 20 57 25 0 4 44 11
98 15 373 26 552 59 662 122 112 64 317 263 449 436 30 39 1 13 -40 -35z"/>
<path d="M13752 3799 c-54 -10 -105 -41 -132 -80 l-21 -29 50 27 c41 21 64 26
118 25 82 0 109 -10 152 -53 58 -60 66 -83 66 -197 0 -85 2 -99 13 -85 31 43
42 170 21 246 -12 46 -67 109 -112 130 -44 20 -103 26 -155 16z"/>
<path d="M19000 3710 l0 -30 105 -2 c58 -1 115 -2 128 -2 18 -1 22 4 22 29 l0
30 -127 3 -128 3 0 -31z"/>
<path d="M16100 3712 c0 -11 8 -29 19 -41 10 -12 28 -58 40 -104 11 -45 34
-131 49 -190 l28 -108 14 55 c13 53 12 62 -20 183 -61 234 -56 223 -95 223
-27 0 -35 -4 -35 -18z"/>
<path d="M16385 3715 c-3 -8 -7 -22 -10 -30 -3 -10 3 -15 18 -15 21 0 26 -15
71 -182 27 -101 52 -187 55 -193 2 -5 11 13 18 40 12 48 10 58 -35 222 l-47
173 -33 0 c-20 0 -34 -6 -37 -15z"/>
<path d="M16656 3708 c-9 -34 -8 -36 18 -40 l24 -3 -59 -209 c-32 -116 -56
-212 -54 -215 12 -11 24 22 65 169 24 85 53 192 66 238 l23 82 -39 0 c-31 0
-39 -4 -44 -22z"/>
<path d="M21640 3680 l0 -30 68 0 c133 0 192 -39 192 -128 l1 -47 19 24 c14
17 20 38 20 76 0 99 -57 135 -214 135 l-86 0 0 -30z"/>
<path d="M13625 3598 c-27 -45 -28 -158 -1 -210 25 -52 107 -93 165 -83 42 7
84 34 101 64 9 17 6 17 -35 3 -78 -25 -157 5 -191 74 -13 28 -19 60 -19 112 0
39 0 72 0 72 -1 0 -9 -15 -20 -32z"/>
<path d="M19030 3540 l0 -70 74 0 c40 0 88 -3 105 -6 30 -6 31 -6 31 30 l0 36
-85 0 -85 0 0 40 c0 33 -3 40 -20 40 -18 0 -20 -7 -20 -70z"/>
<path d="M21670 3504 l0 -86 55 4 c40 3 62 11 80 28 14 13 25 27 25 31 0 4
-27 5 -60 2 l-60 -6 0 57 c0 49 -2 56 -20 56 -18 0 -20 -7 -20 -86z"/>
<path d="M16353 3457 c-13 -45 -31 -112 -42 -149 -14 -48 -16 -68 -8 -68 16 0
90 266 80 285 -6 10 -15 -12 -30 -68z"/>
<path d="M21842 3402 l-24 -18 53 -82 c50 -80 53 -82 90 -82 l39 0 -48 78
c-27 42 -55 87 -63 100 -17 26 -18 26 -47 4z"/>
<path d="M19030 3325 l0 -75 120 0 120 0 0 30 0 30 -100 0 -100 0 0 45 c0 38
-3 45 -20 45 -18 0 -20 -7 -20 -75z"/>
<path d="M21670 3290 c0 -63 2 -70 20 -70 18 0 20 7 20 70 0 63 -2 70 -20 70
-18 0 -20 -7 -20 -70z"/>
<path d="M13926 3306 c-15 -24 -15 -26 14 -46 23 -16 41 -20 82 -18 l53 3 -57
43 c-31 23 -61 42 -66 42 -6 0 -17 -11 -26 -24z"/>
<path d="M8346 3265 c-100 -205 -5 -466 210 -575 67 -34 72 -35 189 -35 111 0
124 2 176 28 66 32 125 78 165 127 l29 35 -30 -23 c-124 -94 -186 -115 -320
-110 -90 4 -107 7 -168 38 -111 56 -189 143 -229 258 -24 67 -26 200 -4 263
21 61 14 59 -18 -6z"/>
<path d="M9930 2315 l0 -125 1000 0 1000 0 0 30 0 30 -980 0 -980 0 0 95 c0
88 -1 95 -20 95 -19 0 -20 -7 -20 -125z"/>
<path d="M17210 1555 l0 -805 900 0 900 0 0 31 0 31 -192 -2 c-106 -2 -502 -2
-880 -2 l-688 2 0 775 c0 768 0 775 -20 775 -20 0 -20 -7 -20 -805z"/>
<path d="M15180 1545 l0 -805 885 0 885 0 0 31 0 32 -242 -4 c-134 -2 -523 -3
-865 -1 l-623 2 0 775 c0 768 0 775 -20 775 -20 0 -20 -7 -20 -805z"/>
<path d="M19389 1458 c-51 -101 -113 -305 -173 -569 -31 -135 -56 -249 -56
-252 0 -4 6 -7 13 -7 8 0 30 82 66 243 61 276 107 445 155 565 18 45 32 82 30
82 -2 0 -18 -28 -35 -62z"/>
<path d="M18660 1200 l0 -30 105 0 105 0 0 30 0 30 -105 0 -105 0 0 -30z"/>
<path d="M16500 1191 l0 -31 78 0 c61 0 85 -5 116 -23 65 -37 81 -67 81 -152
0 -40 3 -71 7 -69 21 13 40 98 35 151 -11 109 -63 146 -214 151 l-103 4 0 -31z"/>
<path d="M18700 1060 l0 -50 80 0 80 0 0 30 0 30 -60 0 c-53 0 -60 2 -60 20 0
13 -7 20 -20 20 -17 0 -20 -7 -20 -50z"/>
<path d="M16540 975 l0 -125 35 0 c43 0 90 23 105 49 15 28 13 33 -9 21 -11
-5 -36 -10 -55 -10 l-36 0 0 95 c0 88 -1 95 -20 95 -19 0 -20 -7 -20 -125z"/>
<path d="M18700 905 c0 -38 3 -45 20 -45 17 0 20 7 20 45 0 38 -3 45 -20 45
-17 0 -20 -7 -20 -45z"/>
</g>
</svg>
